<svg id="Calque_1" data-name="Calque 1" xmlns="http://www.w3.org/2000/svg" viewBox="0 0 443 155.05"><defs><style>.cls-1{fill:#fff;}</style></defs><title>khal</title><path class="cls-1" d="M37,77.59l57.7,62.13H59.14l-53.26-51V66.49l53.26-51H94.65Z"/><path class="cls-1" d="M437.18,108.66v31.06H352.76V15.45h31.06v93.21Z"/><polygon class="cls-1" points="224.25 140.02 217.82 140.02 203.72 90.9 134.65 90.9 134.65 139.73 103.59 139.73 103.59 15.46 134.65 15.46 134.65 59.84 175.85 59.76 194.8 59.82 181.98 15.21 188.41 15.21 224.25 140.02"/><polygon class="cls-1" points="322.21 59.84 309.67 15.92 288.96 57.34 289.58 59.84 301.8 108.62 277.48 108.62 234.91 139.68 345.03 139.68 322.21 59.84"/><polygon class="cls-1" points="216.47 94.87 229.02 138.79 249.73 97.37 249.11 94.87 236.89 46.09 261.21 46.09 303.78 15.02 193.66 15.02 216.47 94.87"/><polygon class="cls-1" points="5.83 140.02 11.51 140.02 5.83 134.53 5.83 140.02"/><polygon class="cls-1" points="5.83 93.18 5.83 134.53 11.51 140.02 54.33 140.02 5.83 93.18"/></svg>